<svg width="800" height="600" xmlns="http://www.w3.org/2000/svg">
 <g>
  <title>Layer 1</title>
  <g stroke="null" id="svg_7">
   <rect stroke="#000000" stroke-width="5" id="svg_11" height="517.85773" width="764" y="41.8" x="17" fill="#ffffff"/>
   <path stroke="#000000" id="svg_1" d="m100.04005,57.95165c19.5393,7.34206 33.54444,30.67131 30.36163,50.57539c-2.00698,12.55103 -44.3492,88.74454 -48.04701,86.45916c-1.20692,-0.74592 -11.94698,-18.50981 -23.86681,-39.47535c-19.09431,-33.58458 -21.6724,-39.84705 -21.6724,-52.6448c0,-25.9405 20.76062,-47.18871 45.68804,-46.7611c7.27417,0.1248 15.16562,0.95581 17.53654,1.8467l0,0l0.00001,0zm-19.57617,13.04712c-0.64676,3.35837 0.86403,4.99624 4.60867,4.99624c8.53441,0 20.37301,10.80907 23.01794,21.01617c2.82142,10.88821 10.30225,12.18315 11.40721,1.97458c2.12885,-19.66825 -35.44733,-46.61009 -39.03382,-27.98699l0,0z" fill="#2b31ef"/>
   <path stroke="#000000" id="svg_2" d="m103.52274,228.61304c19.5393,7.34206 33.5444,30.6713 30.3616,50.5754c-2.00698,12.55103 -44.34919,88.74451 -48.047,86.45915c-1.20693,-0.74593 -11.947,-18.50983 -23.86683,-39.47534c-19.09429,-33.5846 -21.6724,-39.84706 -21.6724,-52.64483c0,-25.9405 20.76065,-47.18868 45.68807,-46.76108c7.27414,0.12479 15.1656,0.95581 17.53654,1.8467l0,0l0.00001,0zm-19.57618,13.0471c-0.64677,3.35837 0.86403,4.99627 4.60866,4.99627c8.53442,0 20.37303,10.80903 23.01793,21.01615c2.82142,10.88819 10.30227,12.18314 11.40721,1.97458c2.12887,-19.66824 -35.44731,-46.6101 -39.03381,-27.987l0,0l0.00001,0z" fill="#ef1c1c"/>
   <path stroke="#000000" id="svg_3" d="m103.52274,406.24021c19.5393,7.34206 33.5444,30.6713 30.3616,50.5754c-2.00698,12.55103 -44.34919,88.74451 -48.047,86.45915c-1.20693,-0.74593 -11.947,-18.50983 -23.86683,-39.47534c-19.09429,-33.5846 -21.6724,-39.84706 -21.6724,-52.64483c0,-25.9405 20.76065,-47.18868 45.68807,-46.76108c7.27414,0.12479 15.1656,0.95581 17.53654,1.8467l0,0l0.00001,0zm-19.57618,13.0471c-0.64677,3.35837 0.86403,4.99627 4.60866,4.99627c8.53442,0 20.37303,10.80903 23.01793,21.01615c2.82142,10.88819 10.30227,12.18314 11.40721,1.97458c2.12887,-19.66824 -35.44731,-46.6101 -39.03381,-27.987l0,0l0.00001,0z" fill="#f9ac11"/>
   <text stroke="#000000" transform="matrix(2.93706 0 0 2.93706 -367.81 -309.183)" xml:space="preserve" text-anchor="start" font-family="Noto Sans JP" font-size="24" stroke-width="0" id="svg_4" y="153.1805" x="178.45891" fill="#000000">Political Events</text>
   <text stroke="#000000" transform="matrix(3.0513 0 0 3.0513 -390.741 -264.26)" xml:space="preserve" text-anchor="start" font-family="Noto Sans JP" font-size="24" stroke-width="0" id="svg_5" y="249.05428" x="179.23296" fill="#000000">Current Selection</text>
   <text stroke="#000000" transform="matrix(2.90907 0 0 2.90907 -375.595 -252.831)" xml:space="preserve" text-anchor="start" font-family="Noto Sans JP" font-size="24" stroke-width="0" id="svg_6" y="194.2313" x="183.57532" fill="#000000">Infected Waters</text>
  </g>
 </g>

</svg>