<svg width="800" height="600" xmlns="http://www.w3.org/2000/svg">
 <g>
  <title>Layer 1</title>
  <rect stroke-width="5" id="svg_11" height="486" width="756" y="38.8" x="35" stroke="#000000" fill="#ffffff"/>
  <g stroke="null" id="svg_7">
   <path stroke="#000000" id="svg_1" d="m107.93157,53.95803c18.33728,6.89039 31.48084,28.78446 28.49383,47.46408c-1.88351,11.77891 -41.62091,83.28513 -45.09124,81.14034c-1.13267,-0.70003 -11.21202,-17.37112 -22.39856,-37.04689c-17.91966,-31.51851 -20.33915,-37.39573 -20.33915,-49.40618c0,-24.34468 19.48346,-44.28574 42.87739,-43.88444c6.82668,0.11712 14.23266,0.89701 16.45772,1.73309l0,0zm-18.37188,12.24448c-0.60697,3.15177 0.81088,4.68888 4.32515,4.68888c8.00939,0 19.1197,10.14411 21.60192,19.72329c2.64785,10.21839 9.66847,11.43366 10.70546,1.85311c1.99789,-18.45829 -33.26667,-43.74272 -36.63253,-26.26528l0,0z" fill="#2b31ef"/>
   <path stroke="#000000" id="svg_2" d="m111.20001,214.12062c18.33728,6.89039 31.48081,28.78445 28.49381,47.46409c-1.88351,11.77891 -41.6209,83.2851 -45.09123,81.14033c-1.13268,-0.70004 -11.21204,-17.37114 -22.39858,-37.04688c-17.91964,-31.51853 -20.33915,-37.39574 -20.33915,-49.40621c0,-24.34468 19.48349,-44.28571 42.87742,-43.88442c6.82665,0.11711 14.23264,0.89701 16.45772,1.73309l0,0zm-18.37189,12.24446c-0.60698,3.15177 0.81088,4.68891 4.32514,4.68891c8.0094,0 19.11972,10.14408 21.60191,19.72327c2.64785,10.21837 9.66849,11.43365 10.70546,1.85311c1.99791,-18.45828 -33.26665,-43.74273 -36.63252,-26.26529l0,0z" fill="#ef1c1c"/>
   <path stroke="#000000" id="svg_3" d="m111.20001,380.82047c18.33728,6.89039 31.48081,28.78445 28.49381,47.46409c-1.88351,11.77891 -41.6209,83.2851 -45.09123,81.14033c-1.13268,-0.70004 -11.21204,-17.37114 -22.39858,-37.04688c-17.91964,-31.51853 -20.33915,-37.39574 -20.33915,-49.40621c0,-24.34468 19.48349,-44.28571 42.87742,-43.88442c6.82665,0.11711 14.23264,0.89701 16.45772,1.73309l0,0zm-18.37189,12.24446c-0.60698,3.15177 0.81088,4.68891 4.32514,4.68891c8.0094,0 19.11972,10.14408 21.60191,19.72327c2.64785,10.21837 9.66849,11.43365 10.70546,1.85311c1.99791,-18.45828 -33.26665,-43.74273 -36.63252,-26.26529l0,0z" fill="#f9ac11"/>
   <text stroke="#000000" transform="matrix(3.26862 0 0 3.26862 -444.498 -351.153)" xml:space="preserve" text-anchor="start" font-family="Noto Sans JP" font-size="24" stroke-width="0" id="svg_4" y="149.38843" x="197.86045" fill="#000000">Political Events</text>
   <text stroke="#000000" transform="matrix(3.26862 0 0 3.26862 -444.498 -351.153)" xml:space="preserve" text-anchor="start" font-family="Noto Sans JP" font-size="24" stroke-width="0" id="svg_5" y="252.38843" x="196.86045" fill="#000000">Current Event</text>
   <text stroke="#000000" transform="matrix(3.26862 0 0 3.26862 -444.498 -351.153)" xml:space="preserve" text-anchor="start" font-family="Noto Sans JP" font-size="24" stroke-width="0" id="svg_6" y="203.38843" x="197.86045" fill="#000000">Infected Events</text>
  </g>
 </g>

</svg>